<mxfile host="app.diagrams.net" agent="Mozilla/5.0 (Windows NT 10.0; Win64; x64) AppleWebKit/537.36 (KHTML, like Gecko) Chrome/130.0.0.0 Safari/537.36 Edg/130.0.0.0" version="24.8.2">
  <diagram name="Page-1" id="8S4RG2isiOPWmvPrsQSC">
    <mxGraphModel dx="1042" dy="533" grid="1" gridSize="10" guides="1" tooltips="1" connect="1" arrows="1" fold="1" page="1" pageScale="1" pageWidth="850" pageHeight="1100" math="0" shadow="0">
      <root>
        <mxCell id="0" />
        <mxCell id="1" parent="0" />
        <mxCell id="70oDqz51FfQYxnPlHD6Z-1" value="Orders service" style="whiteSpace=wrap;html=1;aspect=fixed;" vertex="1" parent="1">
          <mxGeometry x="450" y="290" width="80" height="80" as="geometry" />
        </mxCell>
        <mxCell id="70oDqz51FfQYxnPlHD6Z-42" style="edgeStyle=orthogonalEdgeStyle;rounded=0;orthogonalLoop=1;jettySize=auto;html=1;entryX=0.5;entryY=0;entryDx=0;entryDy=0;startArrow=classic;startFill=1;" edge="1" parent="1" source="70oDqz51FfQYxnPlHD6Z-2" target="70oDqz51FfQYxnPlHD6Z-31">
          <mxGeometry relative="1" as="geometry" />
        </mxCell>
        <mxCell id="70oDqz51FfQYxnPlHD6Z-43" value="Validate products" style="edgeLabel;html=1;align=center;verticalAlign=middle;resizable=0;points=[];" vertex="1" connectable="0" parent="70oDqz51FfQYxnPlHD6Z-42">
          <mxGeometry x="-0.2392" relative="1" as="geometry">
            <mxPoint as="offset" />
          </mxGeometry>
        </mxCell>
        <mxCell id="70oDqz51FfQYxnPlHD6Z-2" value="Products service" style="whiteSpace=wrap;html=1;aspect=fixed;" vertex="1" parent="1">
          <mxGeometry x="450" y="15" width="80" height="80" as="geometry" />
        </mxCell>
        <mxCell id="70oDqz51FfQYxnPlHD6Z-3" value="MSSQL" style="shape=cylinder3;whiteSpace=wrap;html=1;boundedLbl=1;backgroundOutline=1;size=15;" vertex="1" parent="1">
          <mxGeometry x="250" y="20" width="70" height="70" as="geometry" />
        </mxCell>
        <mxCell id="70oDqz51FfQYxnPlHD6Z-4" value="PostgreSQL" style="shape=cylinder3;whiteSpace=wrap;html=1;boundedLbl=1;backgroundOutline=1;size=15;" vertex="1" parent="1">
          <mxGeometry x="250" y="296.25" width="70" height="67.5" as="geometry" />
        </mxCell>
        <mxCell id="70oDqz51FfQYxnPlHD6Z-7" value="&lt;div&gt;&lt;br&gt;&lt;/div&gt;API&amp;nbsp;&lt;div&gt;Gateway&lt;div&gt;&lt;br&gt;&lt;/div&gt;&lt;/div&gt;" style="whiteSpace=wrap;html=1;aspect=fixed;" vertex="1" parent="1">
          <mxGeometry x="310" y="150" width="80" height="80" as="geometry" />
        </mxCell>
        <mxCell id="70oDqz51FfQYxnPlHD6Z-8" value="&lt;div&gt;Client&lt;/div&gt;" style="whiteSpace=wrap;html=1;aspect=fixed;" vertex="1" parent="1">
          <mxGeometry x="110" y="150" width="80" height="80" as="geometry" />
        </mxCell>
        <mxCell id="70oDqz51FfQYxnPlHD6Z-14" value="" style="endArrow=classic;html=1;rounded=0;exitX=1;exitY=0.5;exitDx=0;exitDy=0;entryX=0;entryY=0.5;entryDx=0;entryDy=0;" edge="1" parent="1" source="70oDqz51FfQYxnPlHD6Z-8" target="70oDqz51FfQYxnPlHD6Z-7">
          <mxGeometry relative="1" as="geometry">
            <mxPoint x="200" y="179.5" as="sourcePoint" />
            <mxPoint x="280" y="180" as="targetPoint" />
            <Array as="points" />
          </mxGeometry>
        </mxCell>
        <mxCell id="70oDqz51FfQYxnPlHD6Z-15" value="Submit order" style="edgeLabel;resizable=0;html=1;;align=center;verticalAlign=middle;" connectable="0" vertex="1" parent="70oDqz51FfQYxnPlHD6Z-14">
          <mxGeometry relative="1" as="geometry" />
        </mxCell>
        <mxCell id="70oDqz51FfQYxnPlHD6Z-21" value="" style="endArrow=classic;html=1;rounded=0;exitX=1;exitY=0.5;exitDx=0;exitDy=0;entryX=0.5;entryY=0;entryDx=0;entryDy=0;" edge="1" parent="1" target="70oDqz51FfQYxnPlHD6Z-1">
          <mxGeometry relative="1" as="geometry">
            <mxPoint x="390" y="190" as="sourcePoint" />
            <mxPoint x="490" y="300.5" as="targetPoint" />
            <Array as="points" />
          </mxGeometry>
        </mxCell>
        <mxCell id="70oDqz51FfQYxnPlHD6Z-22" value="Create order" style="edgeLabel;resizable=0;html=1;;align=center;verticalAlign=middle;" connectable="0" vertex="1" parent="70oDqz51FfQYxnPlHD6Z-21">
          <mxGeometry relative="1" as="geometry" />
        </mxCell>
        <mxCell id="70oDqz51FfQYxnPlHD6Z-23" style="edgeStyle=orthogonalEdgeStyle;rounded=0;orthogonalLoop=1;jettySize=auto;html=1;entryX=0.5;entryY=1;entryDx=0;entryDy=0;exitX=1;exitY=0.75;exitDx=0;exitDy=0;" edge="1" parent="1" source="70oDqz51FfQYxnPlHD6Z-1">
          <mxGeometry relative="1" as="geometry">
            <mxPoint x="550" y="350" as="sourcePoint" />
            <mxPoint x="720" y="220" as="targetPoint" />
            <Array as="points">
              <mxPoint x="720" y="350" />
            </Array>
          </mxGeometry>
        </mxCell>
        <mxCell id="70oDqz51FfQYxnPlHD6Z-24" value="Order created" style="edgeLabel;html=1;align=center;verticalAlign=middle;resizable=0;points=[];" vertex="1" connectable="0" parent="70oDqz51FfQYxnPlHD6Z-23">
          <mxGeometry x="-0.3428" y="1" relative="1" as="geometry">
            <mxPoint as="offset" />
          </mxGeometry>
        </mxCell>
        <mxCell id="70oDqz51FfQYxnPlHD6Z-34" style="edgeStyle=orthogonalEdgeStyle;rounded=0;orthogonalLoop=1;jettySize=auto;html=1;exitX=0.25;exitY=1;exitDx=0;exitDy=0;entryX=1;entryY=0.25;entryDx=0;entryDy=0;" edge="1" parent="1" source="70oDqz51FfQYxnPlHD6Z-31" target="70oDqz51FfQYxnPlHD6Z-1">
          <mxGeometry relative="1" as="geometry">
            <Array as="points">
              <mxPoint x="690" y="220" />
              <mxPoint x="690" y="310" />
            </Array>
          </mxGeometry>
        </mxCell>
        <mxCell id="70oDqz51FfQYxnPlHD6Z-35" value="Products validated" style="edgeLabel;html=1;align=center;verticalAlign=middle;resizable=0;points=[];" vertex="1" connectable="0" parent="70oDqz51FfQYxnPlHD6Z-34">
          <mxGeometry x="0.2636" y="2" relative="1" as="geometry">
            <mxPoint x="-6" y="-2" as="offset" />
          </mxGeometry>
        </mxCell>
        <mxCell id="70oDqz51FfQYxnPlHD6Z-31" value="RabbitMQ (MassTransit)" style="whiteSpace=wrap;html=1;aspect=fixed;" vertex="1" parent="1">
          <mxGeometry x="660" y="140" width="80" height="80" as="geometry" />
        </mxCell>
        <mxCell id="70oDqz51FfQYxnPlHD6Z-38" style="edgeStyle=orthogonalEdgeStyle;rounded=0;orthogonalLoop=1;jettySize=auto;html=1;entryX=1;entryY=0.5;entryDx=0;entryDy=0;entryPerimeter=0;startArrow=classic;startFill=1;" edge="1" parent="1" source="70oDqz51FfQYxnPlHD6Z-2" target="70oDqz51FfQYxnPlHD6Z-3">
          <mxGeometry relative="1" as="geometry" />
        </mxCell>
        <mxCell id="70oDqz51FfQYxnPlHD6Z-39" value="Check quantity" style="edgeLabel;html=1;align=center;verticalAlign=middle;resizable=0;points=[];" vertex="1" connectable="0" parent="70oDqz51FfQYxnPlHD6Z-38">
          <mxGeometry x="-0.04" y="1" relative="1" as="geometry">
            <mxPoint as="offset" />
          </mxGeometry>
        </mxCell>
        <mxCell id="70oDqz51FfQYxnPlHD6Z-45" style="edgeStyle=orthogonalEdgeStyle;rounded=0;orthogonalLoop=1;jettySize=auto;html=1;entryX=1;entryY=0.5;entryDx=0;entryDy=0;entryPerimeter=0;" edge="1" parent="1" source="70oDqz51FfQYxnPlHD6Z-1" target="70oDqz51FfQYxnPlHD6Z-4">
          <mxGeometry relative="1" as="geometry" />
        </mxCell>
        <mxCell id="70oDqz51FfQYxnPlHD6Z-46" value="Save order" style="edgeLabel;html=1;align=center;verticalAlign=middle;resizable=0;points=[];" vertex="1" connectable="0" parent="70oDqz51FfQYxnPlHD6Z-45">
          <mxGeometry x="-0.0133" relative="1" as="geometry">
            <mxPoint as="offset" />
          </mxGeometry>
        </mxCell>
      </root>
    </mxGraphModel>
  </diagram>
</mxfile>
